<?xml version="1.0" encoding="utf-8"?>
<!-- Generator: Adobe Illustrator 23.0.2, SVG Export Plug-In . SVG Version: 6.00 Build 0)  -->
<svg version="1.1" id="Layer_1" xmlns="http://www.w3.org/2000/svg" xmlns:xlink="http://www.w3.org/1999/xlink" x="0px" y="0px"
	 viewBox="0 0 2048 2048" style="enable-background:new 0 0 2048 2048;" xml:space="preserve">
<style type="text/css">
	.st0{fill:#7E8B96;}
	.st1{fill:#FFE07D;}
	.st2{fill:#D8AB89;}
	.st3{fill:#CF9772;}
	.st4{fill:#BD8969;}
	.st5{fill:#CDE2FF;}
	.st6{fill:#FEDD61;}
	.st7{fill:#DD636E;}
	.st8{fill:#60B7FF;}
</style>
<g>
	<g>
		<g>
			<path class="st0" d="M1424.32,723.66c-8.28,0-15-6.72-15-15v-93.82c0-14.69,5.72-28.5,16.11-38.89l97.78-97.78
				c4.72-4.72,7.32-11,7.32-17.68s-2.6-12.96-7.32-17.68l-94.39-94.39c-9.75-9.75-25.61-9.75-35.35,0l-90.45,90.44
				c-5.86,5.86-15.36,5.86-21.21,0c-5.86-5.86-5.86-15.36,0-21.21l90.45-90.45c21.44-21.44,56.33-21.44,77.78,0l94.39,94.39
				c10.39,10.39,16.11,24.2,16.11,38.89c0,14.69-5.72,28.5-16.11,38.89l-97.78,97.78c-4.72,4.72-7.32,11-7.32,17.68v93.82
				C1439.32,716.95,1432.6,723.66,1424.32,723.66z"/>
		</g>
	</g>
	<path class="st1" d="M1301.17,544.68L1176,419.51c-3.91-3.91-3.91-10.24,0-14.14l30.92-30.92c38.47-38.47,100.84-38.47,139.31,0
		l0,0c38.47,38.47,38.47,100.84,0,139.31l-30.92,30.92C1311.41,548.58,1305.07,548.58,1301.17,544.68z"/>
	<path class="st2" d="M280,1736.86c-13.25,0-24-10.75-24-24v-564.63c0-13.25,10.75-24,24-24s24,10.75,24,24v564.63
		C304,1726.12,293.25,1736.86,280,1736.86z"/>
	<path class="st2" d="M1744,1406.56h-507h-48v48v258.31c0,13.26,10.75,24,24,24h555c13.25,0,24-10.74,24-24v-282.31v-24H1744z"/>
	<rect x="1189" y="1124.24" class="st3" width="603" height="330.31"/>
	<path class="st2" d="M1768,785.33H280c-13.25,0-24,10.74-24,24v362.91h1536V809.33C1792,796.07,1781.25,785.33,1768,785.33z"/>
	<path class="st3" d="M1124,1055.49H924c-13.25,0-24-10.75-24-24c0-13.25,10.75-24,24-24h200c13.25,0,24,10.75,24,24
		C1148,1044.74,1137.25,1055.49,1124,1055.49z"/>
	<path class="st4" d="M1567.75,1337.39h-154.5c-13.25,0-24-10.75-24-24s10.75-24,24-24h154.5c13.25,0,24,10.75,24,24
		S1581,1337.39,1567.75,1337.39z"/>
	<path class="st3" d="M1567.75,1619.71h-154.5c-13.25,0-24-10.75-24-24s10.75-24,24-24h154.5c13.25,0,24,10.75,24,24
		S1581,1619.71,1567.75,1619.71z"/>
	<path class="st5" d="M1339.32,758.66v-30c0-27.61,22.39-50,50-50h70c27.61,0,50,22.39,50,50v30H1339.32z"/>
	<path class="st3" d="M1792,759.33v130.59H256V759.33c0-13.26,10.75-24,24-24h1488C1781.25,735.33,1792,746.07,1792,759.33z"/>
	<g>
		<path class="st6" d="M851,735.33H527.76c-5.52,0-10-4.48-10-10v-51.25c0-5.52,4.48-10,10-10H851c5.52,0,10,4.48,10,10v51.25
			C861,730.85,856.52,735.33,851,735.33z"/>
		<path class="st7" d="M947,664.08H623.76c-5.52,0-10-4.48-10-10v-51.25c0-5.52,4.48-10,10-10H947c5.52,0,10,4.48,10,10v51.25
			C957,659.6,952.52,664.08,947,664.08z"/>
		<path class="st8" d="M869,592.83H545.76c-5.52,0-10-4.48-10-10v-51.25c0-5.52,4.48-10,10-10H869c5.52,0,10,4.48,10,10v51.25
			C879,588.35,874.52,592.83,869,592.83z"/>
	</g>
</g>
</svg>
